<svg width="67" height="12" viewBox="0 0 67 12" fill="none" xmlns="http://www.w3.org/2000/svg">
<g clip-path="url(#clip0_1_402)">
<g clip-path="url(#clip1_1_402)">
<path d="M6.292 1.07499C6.23333 0.957653 6.149 0.864153 6.039 0.794486C5.929 0.724819 5.808 0.689986 5.676 0.689986C5.544 0.689986 5.42116 0.724819 5.3075 0.794486C5.19383 0.864153 5.10766 0.957653 5.049 1.07499L3.674 3.92399L0.582997 4.37499C0.45833 4.38965 0.344664 4.43915 0.241997 4.52349C0.13933 4.60782 0.0696636 4.71232 0.032997 4.83699C-0.00366971 4.96165 -0.00733637 5.08815 0.021997 5.21649C0.0513303 5.34482 0.113664 5.45299 0.208997 5.54099L2.442 7.76299L1.914 10.887C1.892 11.019 1.90666 11.1437 1.958 11.261C2.00933 11.3783 2.08633 11.4773 2.189 11.558C2.29166 11.6387 2.409 11.6827 2.541 11.69C2.673 11.6973 2.79766 11.6717 2.915 11.613L5.676 10.139L8.437 11.613C8.55433 11.6717 8.67716 11.6973 8.8055 11.69C8.93383 11.6827 9.053 11.6405 9.163 11.5635C9.273 11.4865 9.35183 11.3875 9.3995 11.2665C9.44716 11.1455 9.46 11.019 9.438 10.887L8.899 7.76299L11.143 5.54099C11.2383 5.45299 11.3007 5.34482 11.33 5.21649C11.3593 5.08815 11.352 4.96165 11.308 4.83699C11.264 4.71232 11.1943 4.60782 11.099 4.52349C11.0037 4.43915 10.89 4.38965 10.758 4.37499L7.678 3.92399L6.292 1.07499Z" fill="#D1D5DB"/>
<path d="M19.6671 1.07499C19.6085 0.957653 19.5241 0.864153 19.4141 0.794486C19.3041 0.724819 19.1831 0.689986 19.0511 0.689986C18.9191 0.689986 18.7963 0.724819 18.6826 0.794486C18.569 0.864153 18.4828 0.957653 18.4241 1.07499L17.0491 3.92399L13.9581 4.37499C13.8335 4.38965 13.7198 4.43915 13.6171 4.52349C13.5145 4.60782 13.4448 4.71232 13.4081 4.83699C13.3715 4.96165 13.3678 5.08815 13.3971 5.21649C13.4265 5.34482 13.4888 5.45299 13.5841 5.54099L15.8171 7.76299L15.2891 10.887C15.2671 11.019 15.2818 11.1437 15.3331 11.261C15.3845 11.3783 15.4615 11.4773 15.5641 11.558C15.6668 11.6387 15.7841 11.6827 15.9161 11.69C16.0481 11.6973 16.1728 11.6717 16.2901 11.613L19.0511 10.139L21.8121 11.613C21.9295 11.6717 22.0523 11.6973 22.1806 11.69C22.309 11.6827 22.4281 11.6405 22.5381 11.5635C22.6481 11.4865 22.727 11.3875 22.7746 11.2665C22.8223 11.1455 22.8351 11.019 22.8131 10.887L22.2741 7.76299L24.5181 5.54099C24.6135 5.45299 24.6758 5.34482 24.7051 5.21649C24.7345 5.08815 24.7271 4.96165 24.6831 4.83699C24.6391 4.71232 24.5695 4.60782 24.4741 4.52349C24.3788 4.43915 24.2651 4.38965 24.1331 4.37499L21.0531 3.92399L19.6671 1.07499Z" fill="#D1D5DB"/>
<path d="M33.0421 1.07499C32.9835 0.957653 32.8991 0.864153 32.7891 0.794486C32.6791 0.724819 32.5581 0.689986 32.4261 0.689986C32.2941 0.689986 32.1713 0.724819 32.0576 0.794486C31.944 0.864153 31.8578 0.957653 31.7991 1.07499L30.4241 3.92399L27.3331 4.37499C27.2085 4.38965 27.0948 4.43915 26.9921 4.52349C26.8895 4.60782 26.8198 4.71232 26.7831 4.83699C26.7465 4.96165 26.7428 5.08815 26.7721 5.21649C26.8015 5.34482 26.8638 5.45299 26.9591 5.54099L29.1921 7.76299L28.6641 10.887C28.6421 11.019 28.6568 11.1437 28.7081 11.261C28.7595 11.3783 28.8365 11.4773 28.9391 11.558C29.0418 11.6387 29.1591 11.6827 29.2911 11.69C29.4231 11.6973 29.5478 11.6717 29.6651 11.613L32.4261 10.139L35.1871 11.613C35.3045 11.6717 35.4273 11.6973 35.5556 11.69C35.684 11.6827 35.8031 11.6405 35.9131 11.5635C36.0231 11.4865 36.102 11.3875 36.1496 11.2665C36.1973 11.1455 36.2101 11.019 36.1881 10.887L35.6491 7.76299L37.8931 5.54099C37.9885 5.45299 38.0508 5.34482 38.0801 5.21649C38.1095 5.08815 38.1021 4.96165 38.0581 4.83699C38.0141 4.71232 37.9445 4.60782 37.8491 4.52349C37.7538 4.43915 37.6401 4.38965 37.5081 4.37499L34.4281 3.92399L33.0421 1.07499Z" fill="#D1D5DB"/>
<path d="M46.4171 1.07499C46.3585 0.957653 46.2741 0.864153 46.1641 0.794486C46.0541 0.724819 45.9331 0.689986 45.8011 0.689986C45.6691 0.689986 45.5463 0.724819 45.4326 0.794486C45.319 0.864153 45.2328 0.957653 45.1741 1.07499L43.7991 3.92399L40.7081 4.37499C40.5835 4.38965 40.4698 4.43915 40.3671 4.52349C40.2645 4.60782 40.1948 4.71232 40.1581 4.83699C40.1215 4.96165 40.1178 5.08815 40.1471 5.21649C40.1765 5.34482 40.2388 5.45299 40.3341 5.54099L42.5671 7.76299L42.0391 10.887C42.0171 11.019 42.0318 11.1437 42.0831 11.261C42.1345 11.3783 42.2115 11.4773 42.3141 11.558C42.4168 11.6387 42.5341 11.6827 42.6661 11.69C42.7981 11.6973 42.9228 11.6717 43.0401 11.613L45.8011 10.139L48.5621 11.613C48.6795 11.6717 48.8023 11.6973 48.9306 11.69C49.059 11.6827 49.1781 11.6405 49.2881 11.5635C49.3981 11.4865 49.477 11.3875 49.5246 11.2665C49.5723 11.1455 49.5851 11.019 49.5631 10.887L49.0241 7.76299L51.2681 5.54099C51.3635 5.45299 51.4258 5.34482 51.4551 5.21649C51.4845 5.08815 51.4771 4.96165 51.4331 4.83699C51.3891 4.71232 51.3195 4.60782 51.2241 4.52349C51.1288 4.43915 51.0151 4.38965 50.8831 4.37499L47.8031 3.92399L46.4171 1.07499Z" fill="#D1D5DB"/>
<path d="M59.7921 1.07499C59.7335 0.957653 59.6491 0.864153 59.5391 0.794486C59.4291 0.724819 59.3081 0.689986 59.1761 0.689986C59.0441 0.689986 58.9213 0.724819 58.8076 0.794486C58.694 0.864153 58.6078 0.957653 58.5491 1.07499L57.1741 3.92399L54.0831 4.37499C53.9585 4.38965 53.8448 4.43915 53.7421 4.52349C53.6395 4.60782 53.5698 4.71232 53.5331 4.83699C53.4965 4.96165 53.4928 5.08815 53.5221 5.21649C53.5515 5.34482 53.6138 5.45299 53.7091 5.54099L55.9421 7.76299L55.4141 10.887C55.3921 11.019 55.4068 11.1437 55.4581 11.261C55.5095 11.3783 55.5865 11.4773 55.6891 11.558C55.7918 11.6387 55.9091 11.6827 56.0411 11.69C56.1731 11.6973 56.2978 11.6717 56.4151 11.613L59.1761 10.139L61.9371 11.613C62.0545 11.6717 62.1773 11.6973 62.3056 11.69C62.434 11.6827 62.5531 11.6405 62.6631 11.5635C62.7731 11.4865 62.852 11.3875 62.8996 11.2665C62.9473 11.1455 62.9601 11.019 62.9381 10.887L62.3991 7.76299L64.6431 5.54099C64.7385 5.45299 64.8008 5.34482 64.8301 5.21649C64.8595 5.08815 64.8521 4.96165 64.8081 4.83699C64.7641 4.71232 64.6945 4.60782 64.5991 4.52349C64.5038 4.43915 64.3901 4.38965 64.2581 4.37499L61.1781 3.92399L59.7921 1.07499Z" fill="#D1D5DB"/>
</g>
<g clip-path="url(#clip2_1_402)">
<g clip-path="url(#clip3_1_402)">
<path d="M6.292 1.07499C6.23333 0.957653 6.149 0.864153 6.039 0.794486C5.929 0.724819 5.808 0.689986 5.676 0.689986C5.544 0.689986 5.42116 0.724819 5.3075 0.794486C5.19383 0.864153 5.10766 0.957653 5.049 1.07499L3.674 3.92399L0.582997 4.37499C0.45833 4.38965 0.344664 4.43915 0.241997 4.52349C0.13933 4.60782 0.0696636 4.71232 0.032997 4.83699C-0.00366971 4.96165 -0.00733637 5.08815 0.021997 5.21649C0.0513303 5.34482 0.113664 5.45299 0.208997 5.54099L2.442 7.76299L1.914 10.887C1.892 11.019 1.90666 11.1437 1.958 11.261C2.00933 11.3783 2.08633 11.4773 2.189 11.558C2.29166 11.6387 2.409 11.6827 2.541 11.69C2.673 11.6973 2.79766 11.6717 2.915 11.613L5.676 10.139L8.437 11.613C8.55433 11.6717 8.67716 11.6973 8.8055 11.69C8.93383 11.6827 9.053 11.6405 9.163 11.5635C9.273 11.4865 9.35183 11.3875 9.3995 11.2665C9.44716 11.1455 9.46 11.019 9.438 10.887L8.899 7.76299L11.143 5.54099C11.2383 5.45299 11.3007 5.34482 11.33 5.21649C11.3593 5.08815 11.352 4.96165 11.308 4.83699C11.264 4.71232 11.1943 4.60782 11.099 4.52349C11.0037 4.43915 10.89 4.38965 10.758 4.37499L7.678 3.92399L6.292 1.07499Z" fill="#FACC15"/>
<path d="M19.6671 1.07499C19.6085 0.957653 19.5241 0.864153 19.4141 0.794486C19.3041 0.724819 19.1831 0.689986 19.0511 0.689986C18.9191 0.689986 18.7963 0.724819 18.6826 0.794486C18.569 0.864153 18.4828 0.957653 18.4241 1.07499L17.0491 3.92399L13.9581 4.37499C13.8335 4.38965 13.7198 4.43915 13.6171 4.52349C13.5145 4.60782 13.4448 4.71232 13.4081 4.83699C13.3715 4.96165 13.3678 5.08815 13.3971 5.21649C13.4265 5.34482 13.4888 5.45299 13.5841 5.54099L15.8171 7.76299L15.2891 10.887C15.2671 11.019 15.2818 11.1437 15.3331 11.261C15.3845 11.3783 15.4615 11.4773 15.5641 11.558C15.6668 11.6387 15.7841 11.6827 15.9161 11.69C16.0481 11.6973 16.1728 11.6717 16.2901 11.613L19.0511 10.139L21.8121 11.613C21.9295 11.6717 22.0523 11.6973 22.1806 11.69C22.309 11.6827 22.4281 11.6405 22.5381 11.5635C22.6481 11.4865 22.727 11.3875 22.7746 11.2665C22.8223 11.1455 22.8351 11.019 22.8131 10.887L22.2741 7.76299L24.5181 5.54099C24.6135 5.45299 24.6758 5.34482 24.7051 5.21649C24.7345 5.08815 24.7271 4.96165 24.6831 4.83699C24.6391 4.71232 24.5695 4.60782 24.4741 4.52349C24.3788 4.43915 24.2651 4.38965 24.1331 4.37499L21.0531 3.92399L19.6671 1.07499Z" fill="#FACC15"/>
<path d="M33.0421 1.07499C32.9835 0.957653 32.8991 0.864153 32.7891 0.794486C32.6791 0.724819 32.5581 0.689986 32.4261 0.689986C32.2941 0.689986 32.1713 0.724819 32.0576 0.794486C31.944 0.864153 31.8578 0.957653 31.7991 1.07499L30.4241 3.92399L27.3331 4.37499C27.2085 4.38965 27.0948 4.43915 26.9921 4.52349C26.8895 4.60782 26.8198 4.71232 26.7831 4.83699C26.7465 4.96165 26.7428 5.08815 26.7721 5.21649C26.8015 5.34482 26.8638 5.45299 26.9591 5.54099L29.1921 7.76299L28.6641 10.887C28.6421 11.019 28.6568 11.1437 28.7081 11.261C28.7595 11.3783 28.8365 11.4773 28.9391 11.558C29.0418 11.6387 29.1591 11.6827 29.2911 11.69C29.4231 11.6973 29.5478 11.6717 29.6651 11.613L32.4261 10.139L35.1871 11.613C35.3045 11.6717 35.4273 11.6973 35.5556 11.69C35.684 11.6827 35.8031 11.6405 35.9131 11.5635C36.0231 11.4865 36.102 11.3875 36.1496 11.2665C36.1973 11.1455 36.2101 11.019 36.1881 10.887L35.6491 7.76299L37.8931 5.54099C37.9885 5.45299 38.0508 5.34482 38.0801 5.21649C38.1095 5.08815 38.1021 4.96165 38.0581 4.83699C38.0141 4.71232 37.9445 4.60782 37.8491 4.52349C37.7538 4.43915 37.6401 4.38965 37.5081 4.37499L34.4281 3.92399L33.0421 1.07499Z" fill="#FACC15"/>
</g>
</g>
</g>
<defs>
<clipPath id="clip0_1_402">
<rect width="66.88" height="11" fill="white" transform="translate(0 0.689987)"/>
</clipPath>
<clipPath id="clip1_1_402">
<rect width="66.88" height="11" fill="white" transform="matrix(1 0 0 -1 0 11.69)"/>
</clipPath>
<clipPath id="clip2_1_402">
<rect width="26.75" height="11" fill="white" transform="translate(0 0.689987)"/>
</clipPath>
<clipPath id="clip3_1_402">
<rect width="66.88" height="11" fill="white" transform="matrix(1 0 0 -1 0 11.69)"/>
</clipPath>
</defs>
</svg>
