<svg width="67" height="12" viewBox="0 0 67 12" fill="none" xmlns="http://www.w3.org/2000/svg">
<g clip-path="url(#clip0_1_233)">
<g clip-path="url(#clip1_1_233)">
<path d="M6.292 0.684987C6.23333 0.567654 6.149 0.474154 6.039 0.404487C5.929 0.33482 5.808 0.299987 5.676 0.299987C5.544 0.299987 5.42116 0.33482 5.3075 0.404487C5.19383 0.474154 5.10766 0.567654 5.049 0.684987L3.674 3.53399L0.582997 3.98499C0.45833 3.99965 0.344664 4.04915 0.241997 4.13349C0.13933 4.21782 0.0696636 4.32232 0.032997 4.44699C-0.00366971 4.57165 -0.00733637 4.69815 0.021997 4.82649C0.0513303 4.95482 0.113664 5.06299 0.208997 5.15099L2.442 7.37299L1.914 10.497C1.892 10.629 1.90666 10.7537 1.958 10.871C2.00933 10.9883 2.08633 11.0873 2.189 11.168C2.29166 11.2487 2.409 11.2927 2.541 11.3C2.673 11.3073 2.79766 11.2817 2.915 11.223L5.676 9.74899L8.437 11.223C8.55433 11.2817 8.67716 11.3073 8.8055 11.3C8.93383 11.2927 9.053 11.2505 9.163 11.1735C9.273 11.0965 9.35183 10.9975 9.3995 10.8765C9.44716 10.7555 9.46 10.629 9.438 10.497L8.899 7.37299L11.143 5.15099C11.2383 5.06299 11.3007 4.95482 11.33 4.82649C11.3593 4.69815 11.352 4.57165 11.308 4.44699C11.264 4.32232 11.1943 4.21782 11.099 4.13349C11.0037 4.04915 10.89 3.99965 10.758 3.98499L7.678 3.53399L6.292 0.684987Z" fill="#D1D5DB"/>
<path d="M19.6671 0.684987C19.6085 0.567654 19.5241 0.474154 19.4141 0.404487C19.3041 0.33482 19.1831 0.299987 19.0511 0.299987C18.9191 0.299987 18.7963 0.33482 18.6826 0.404487C18.569 0.474154 18.4828 0.567654 18.4241 0.684987L17.0491 3.53399L13.9581 3.98499C13.8335 3.99965 13.7198 4.04915 13.6171 4.13349C13.5145 4.21782 13.4448 4.32232 13.4081 4.44699C13.3715 4.57165 13.3678 4.69815 13.3971 4.82649C13.4265 4.95482 13.4888 5.06299 13.5841 5.15099L15.8171 7.37299L15.2891 10.497C15.2671 10.629 15.2818 10.7537 15.3331 10.871C15.3845 10.9883 15.4615 11.0873 15.5641 11.168C15.6668 11.2487 15.7841 11.2927 15.9161 11.3C16.0481 11.3073 16.1728 11.2817 16.2901 11.223L19.0511 9.74899L21.8121 11.223C21.9295 11.2817 22.0523 11.3073 22.1806 11.3C22.309 11.2927 22.4281 11.2505 22.5381 11.1735C22.6481 11.0965 22.727 10.9975 22.7746 10.8765C22.8223 10.7555 22.8351 10.629 22.8131 10.497L22.2741 7.37299L24.5181 5.15099C24.6135 5.06299 24.6758 4.95482 24.7051 4.82649C24.7345 4.69815 24.7271 4.57165 24.6831 4.44699C24.6391 4.32232 24.5695 4.21782 24.4741 4.13349C24.3788 4.04915 24.2651 3.99965 24.1331 3.98499L21.0531 3.53399L19.6671 0.684987Z" fill="#D1D5DB"/>
<path d="M33.0421 0.684987C32.9835 0.567654 32.8991 0.474154 32.7891 0.404487C32.6791 0.33482 32.5581 0.299987 32.4261 0.299987C32.2941 0.299987 32.1713 0.33482 32.0576 0.404487C31.944 0.474154 31.8578 0.567654 31.7991 0.684987L30.4241 3.53399L27.3331 3.98499C27.2085 3.99965 27.0948 4.04915 26.9921 4.13349C26.8895 4.21782 26.8198 4.32232 26.7831 4.44699C26.7465 4.57165 26.7428 4.69815 26.7721 4.82649C26.8015 4.95482 26.8638 5.06299 26.9591 5.15099L29.1921 7.37299L28.6641 10.497C28.6421 10.629 28.6568 10.7537 28.7081 10.871C28.7595 10.9883 28.8365 11.0873 28.9391 11.168C29.0418 11.2487 29.1591 11.2927 29.2911 11.3C29.4231 11.3073 29.5478 11.2817 29.6651 11.223L32.4261 9.74899L35.1871 11.223C35.3045 11.2817 35.4273 11.3073 35.5556 11.3C35.684 11.2927 35.8031 11.2505 35.9131 11.1735C36.0231 11.0965 36.102 10.9975 36.1496 10.8765C36.1973 10.7555 36.2101 10.629 36.1881 10.497L35.6491 7.37299L37.8931 5.15099C37.9885 5.06299 38.0508 4.95482 38.0801 4.82649C38.1095 4.69815 38.1021 4.57165 38.0581 4.44699C38.0141 4.32232 37.9445 4.21782 37.8491 4.13349C37.7538 4.04915 37.6401 3.99965 37.5081 3.98499L34.4281 3.53399L33.0421 0.684987Z" fill="#D1D5DB"/>
<path d="M46.4171 0.684987C46.3585 0.567654 46.2741 0.474154 46.1641 0.404487C46.0541 0.33482 45.9331 0.299987 45.8011 0.299987C45.6691 0.299987 45.5463 0.33482 45.4326 0.404487C45.319 0.474154 45.2328 0.567654 45.1741 0.684987L43.7991 3.53399L40.7081 3.98499C40.5835 3.99965 40.4698 4.04915 40.3671 4.13349C40.2645 4.21782 40.1948 4.32232 40.1581 4.44699C40.1215 4.57165 40.1178 4.69815 40.1471 4.82649C40.1765 4.95482 40.2388 5.06299 40.3341 5.15099L42.5671 7.37299L42.0391 10.497C42.0171 10.629 42.0318 10.7537 42.0831 10.871C42.1345 10.9883 42.2115 11.0873 42.3141 11.168C42.4168 11.2487 42.5341 11.2927 42.6661 11.3C42.7981 11.3073 42.9228 11.2817 43.0401 11.223L45.8011 9.74899L48.5621 11.223C48.6795 11.2817 48.8023 11.3073 48.9306 11.3C49.059 11.2927 49.1781 11.2505 49.2881 11.1735C49.3981 11.0965 49.477 10.9975 49.5246 10.8765C49.5723 10.7555 49.5851 10.629 49.5631 10.497L49.0241 7.37299L51.2681 5.15099C51.3635 5.06299 51.4258 4.95482 51.4551 4.82649C51.4845 4.69815 51.4771 4.57165 51.4331 4.44699C51.3891 4.32232 51.3195 4.21782 51.2241 4.13349C51.1288 4.04915 51.0151 3.99965 50.8831 3.98499L47.8031 3.53399L46.4171 0.684987Z" fill="#D1D5DB"/>
<path d="M59.7921 0.684987C59.7335 0.567654 59.6491 0.474154 59.5391 0.404487C59.4291 0.33482 59.3081 0.299987 59.1761 0.299987C59.0441 0.299987 58.9213 0.33482 58.8076 0.404487C58.694 0.474154 58.6078 0.567654 58.5491 0.684987L57.1741 3.53399L54.0831 3.98499C53.9585 3.99965 53.8448 4.04915 53.7421 4.13349C53.6395 4.21782 53.5698 4.32232 53.5331 4.44699C53.4965 4.57165 53.4928 4.69815 53.5221 4.82649C53.5515 4.95482 53.6138 5.06299 53.7091 5.15099L55.9421 7.37299L55.4141 10.497C55.3921 10.629 55.4068 10.7537 55.4581 10.871C55.5095 10.9883 55.5865 11.0873 55.6891 11.168C55.7918 11.2487 55.9091 11.2927 56.0411 11.3C56.1731 11.3073 56.2978 11.2817 56.4151 11.223L59.1761 9.74899L61.9371 11.223C62.0545 11.2817 62.1773 11.3073 62.3056 11.3C62.434 11.2927 62.5531 11.2505 62.6631 11.1735C62.7731 11.0965 62.852 10.9975 62.8996 10.8765C62.9473 10.7555 62.9601 10.629 62.9381 10.497L62.3991 7.37299L64.6431 5.15099C64.7385 5.06299 64.8008 4.95482 64.8301 4.82649C64.8595 4.69815 64.8521 4.57165 64.8081 4.44699C64.7641 4.32232 64.6945 4.21782 64.5991 4.13349C64.5038 4.04915 64.3901 3.99965 64.2581 3.98499L61.1781 3.53399L59.7921 0.684987Z" fill="#D1D5DB"/>
</g>
<g clip-path="url(#clip2_1_233)">
<g clip-path="url(#clip3_1_233)">
<path d="M6.292 0.684987C6.23333 0.567654 6.149 0.474154 6.039 0.404487C5.929 0.33482 5.808 0.299987 5.676 0.299987C5.544 0.299987 5.42116 0.33482 5.3075 0.404487C5.19383 0.474154 5.10766 0.567654 5.049 0.684987L3.674 3.53399L0.582997 3.98499C0.45833 3.99965 0.344664 4.04915 0.241997 4.13349C0.13933 4.21782 0.0696636 4.32232 0.032997 4.44699C-0.00366971 4.57165 -0.00733637 4.69815 0.021997 4.82649C0.0513303 4.95482 0.113664 5.06299 0.208997 5.15099L2.442 7.37299L1.914 10.497C1.892 10.629 1.90666 10.7537 1.958 10.871C2.00933 10.9883 2.08633 11.0873 2.189 11.168C2.29166 11.2487 2.409 11.2927 2.541 11.3C2.673 11.3073 2.79766 11.2817 2.915 11.223L5.676 9.74899L8.437 11.223C8.55433 11.2817 8.67716 11.3073 8.8055 11.3C8.93383 11.2927 9.053 11.2505 9.163 11.1735C9.273 11.0965 9.35183 10.9975 9.3995 10.8765C9.44716 10.7555 9.46 10.629 9.438 10.497L8.899 7.37299L11.143 5.15099C11.2383 5.06299 11.3007 4.95482 11.33 4.82649C11.3593 4.69815 11.352 4.57165 11.308 4.44699C11.264 4.32232 11.1943 4.21782 11.099 4.13349C11.0037 4.04915 10.89 3.99965 10.758 3.98499L7.678 3.53399L6.292 0.684987Z" fill="#FACC15"/>
<path d="M19.6671 0.684987C19.6085 0.567654 19.5241 0.474154 19.4141 0.404487C19.3041 0.33482 19.1831 0.299987 19.0511 0.299987C18.9191 0.299987 18.7963 0.33482 18.6826 0.404487C18.569 0.474154 18.4828 0.567654 18.4241 0.684987L17.0491 3.53399L13.9581 3.98499C13.8335 3.99965 13.7198 4.04915 13.6171 4.13349C13.5145 4.21782 13.4448 4.32232 13.4081 4.44699C13.3715 4.57165 13.3678 4.69815 13.3971 4.82649C13.4265 4.95482 13.4888 5.06299 13.5841 5.15099L15.8171 7.37299L15.2891 10.497C15.2671 10.629 15.2818 10.7537 15.3331 10.871C15.3845 10.9883 15.4615 11.0873 15.5641 11.168C15.6668 11.2487 15.7841 11.2927 15.9161 11.3C16.0481 11.3073 16.1728 11.2817 16.2901 11.223L19.0511 9.74899L21.8121 11.223C21.9295 11.2817 22.0523 11.3073 22.1806 11.3C22.309 11.2927 22.4281 11.2505 22.5381 11.1735C22.6481 11.0965 22.727 10.9975 22.7746 10.8765C22.8223 10.7555 22.8351 10.629 22.8131 10.497L22.2741 7.37299L24.5181 5.15099C24.6135 5.06299 24.6758 4.95482 24.7051 4.82649C24.7345 4.69815 24.7271 4.57165 24.6831 4.44699C24.6391 4.32232 24.5695 4.21782 24.4741 4.13349C24.3788 4.04915 24.2651 3.99965 24.1331 3.98499L21.0531 3.53399L19.6671 0.684987Z" fill="#FACC15"/>
<path d="M33.0421 0.684987C32.9835 0.567654 32.8991 0.474154 32.7891 0.404487C32.6791 0.33482 32.5581 0.299987 32.4261 0.299987C32.2941 0.299987 32.1713 0.33482 32.0576 0.404487C31.944 0.474154 31.8578 0.567654 31.7991 0.684987L30.4241 3.53399L27.3331 3.98499C27.2085 3.99965 27.0948 4.04915 26.9921 4.13349C26.8895 4.21782 26.8198 4.32232 26.7831 4.44699C26.7465 4.57165 26.7428 4.69815 26.7721 4.82649C26.8015 4.95482 26.8638 5.06299 26.9591 5.15099L29.1921 7.37299L28.6641 10.497C28.6421 10.629 28.6568 10.7537 28.7081 10.871C28.7595 10.9883 28.8365 11.0873 28.9391 11.168C29.0418 11.2487 29.1591 11.2927 29.2911 11.3C29.4231 11.3073 29.5478 11.2817 29.6651 11.223L32.4261 9.74899L35.1871 11.223C35.3045 11.2817 35.4273 11.3073 35.5556 11.3C35.684 11.2927 35.8031 11.2505 35.9131 11.1735C36.0231 11.0965 36.102 10.9975 36.1496 10.8765C36.1973 10.7555 36.2101 10.629 36.1881 10.497L35.6491 7.37299L37.8931 5.15099C37.9885 5.06299 38.0508 4.95482 38.0801 4.82649C38.1095 4.69815 38.1021 4.57165 38.0581 4.44699C38.0141 4.32232 37.9445 4.21782 37.8491 4.13349C37.7538 4.04915 37.6401 3.99965 37.5081 3.98499L34.4281 3.53399L33.0421 0.684987Z" fill="#FACC15"/>
<path d="M46.4171 0.684987C46.3585 0.567654 46.2741 0.474154 46.1641 0.404487C46.0541 0.33482 45.9331 0.299987 45.8011 0.299987C45.6691 0.299987 45.5463 0.33482 45.4326 0.404487C45.319 0.474154 45.2328 0.567654 45.1741 0.684987L43.7991 3.53399L40.7081 3.98499C40.5835 3.99965 40.4698 4.04915 40.3671 4.13349C40.2645 4.21782 40.1948 4.32232 40.1581 4.44699C40.1215 4.57165 40.1178 4.69815 40.1471 4.82649C40.1765 4.95482 40.2388 5.06299 40.3341 5.15099L42.5671 7.37299L42.0391 10.497C42.0171 10.629 42.0318 10.7537 42.0831 10.871C42.1345 10.9883 42.2115 11.0873 42.3141 11.168C42.4168 11.2487 42.5341 11.2927 42.6661 11.3C42.7981 11.3073 42.9228 11.2817 43.0401 11.223L45.8011 9.74899L48.5621 11.223C48.6795 11.2817 48.8023 11.3073 48.9306 11.3C49.059 11.2927 49.1781 11.2505 49.2881 11.1735C49.3981 11.0965 49.477 10.9975 49.5246 10.8765C49.5723 10.7555 49.5851 10.629 49.5631 10.497L49.0241 7.37299L51.2681 5.15099C51.3635 5.06299 51.4258 4.95482 51.4551 4.82649C51.4845 4.69815 51.4771 4.57165 51.4331 4.44699C51.3891 4.32232 51.3195 4.21782 51.2241 4.13349C51.1288 4.04915 51.0151 3.99965 50.8831 3.98499L47.8031 3.53399L46.4171 0.684987Z" fill="#FACC15"/>
</g>
</g>
</g>
<defs>
<clipPath id="clip0_1_233">
<rect width="66.88" height="11" fill="white" transform="translate(0 0.299988)"/>
</clipPath>
<clipPath id="clip1_1_233">
<rect width="66.88" height="11" fill="white" transform="matrix(1 0 0 -1 0 11.3)"/>
</clipPath>
<clipPath id="clip2_1_233">
<rect width="40.13" height="11" fill="white" transform="translate(0 0.299988)"/>
</clipPath>
<clipPath id="clip3_1_233">
<rect width="66.88" height="11" fill="white" transform="matrix(1 0 0 -1 0 11.3)"/>
</clipPath>
</defs>
</svg>
