<svg width="67" height="12" viewBox="0 0 67 12" fill="none" xmlns="http://www.w3.org/2000/svg">
<g clip-path="url(#clip0_1_536)">
<g clip-path="url(#clip1_1_536)">
<path d="M6.29206 0.964986C6.23339 0.847652 6.14906 0.754152 6.03906 0.684485C5.92906 0.614819 5.80806 0.579986 5.67606 0.579986C5.54406 0.579986 5.42122 0.614819 5.30756 0.684485C5.19389 0.754152 5.10772 0.847652 5.04906 0.964986L3.67406 3.81399L0.583058 4.26499C0.458391 4.27965 0.344725 4.32915 0.242058 4.41349C0.139391 4.49782 0.0697247 4.60232 0.033058 4.72699C-0.00360867 4.85165 -0.00727534 4.97815 0.022058 5.10649C0.0513913 5.23482 0.113725 5.34299 0.209058 5.43099L2.44206 7.65299L1.91406 10.777C1.89206 10.909 1.90672 11.0337 1.95806 11.151C2.00939 11.2683 2.08639 11.3673 2.18906 11.448C2.29172 11.5287 2.40906 11.5727 2.54106 11.58C2.67306 11.5873 2.79772 11.5617 2.91506 11.503L5.67606 10.029L8.43706 11.503C8.55439 11.5617 8.67722 11.5873 8.80556 11.58C8.93389 11.5727 9.05306 11.5305 9.16306 11.4535C9.27306 11.3765 9.35189 11.2775 9.39956 11.1565C9.44722 11.0355 9.46006 10.909 9.43806 10.777L8.89906 7.65299L11.1431 5.43099C11.2384 5.34299 11.3007 5.23482 11.3301 5.10649C11.3594 4.97815 11.3521 4.85165 11.3081 4.72699C11.2641 4.60232 11.1944 4.49782 11.0991 4.41349C11.0037 4.32915 10.8901 4.27965 10.7581 4.26499L7.67806 3.81399L6.29206 0.964986Z" fill="#D1D5DB"/>
<path d="M19.6671 0.964986C19.6084 0.847652 19.5241 0.754152 19.4141 0.684485C19.3041 0.614819 19.1831 0.579986 19.0511 0.579986C18.9191 0.579986 18.7962 0.614819 18.6826 0.684485C18.5689 0.754152 18.4827 0.847652 18.4241 0.964986L17.0491 3.81399L13.9581 4.26499C13.8334 4.27965 13.7197 4.32915 13.6171 4.41349C13.5144 4.49782 13.4447 4.60232 13.4081 4.72699C13.3714 4.85165 13.3677 4.97815 13.3971 5.10649C13.4264 5.23482 13.4887 5.34299 13.5841 5.43099L15.8171 7.65299L15.2891 10.777C15.2671 10.909 15.2817 11.0337 15.3331 11.151C15.3844 11.2683 15.4614 11.3673 15.5641 11.448C15.6667 11.5287 15.7841 11.5727 15.9161 11.58C16.0481 11.5873 16.1727 11.5617 16.2901 11.503L19.0511 10.029L21.8121 11.503C21.9294 11.5617 22.0522 11.5873 22.1806 11.58C22.3089 11.5727 22.4281 11.5305 22.5381 11.4535C22.6481 11.3765 22.7269 11.2775 22.7746 11.1565C22.8222 11.0355 22.8351 10.909 22.8131 10.777L22.2741 7.65299L24.5181 5.43099C24.6134 5.34299 24.6757 5.23482 24.7051 5.10649C24.7344 4.97815 24.7271 4.85165 24.6831 4.72699C24.6391 4.60232 24.5694 4.49782 24.4741 4.41349C24.3787 4.32915 24.2651 4.27965 24.1331 4.26499L21.0531 3.81399L19.6671 0.964986Z" fill="#D1D5DB"/>
<path d="M33.0421 0.964986C32.9834 0.847652 32.8991 0.754152 32.7891 0.684485C32.6791 0.614819 32.5581 0.579986 32.4261 0.579986C32.2941 0.579986 32.1712 0.614819 32.0576 0.684485C31.9439 0.754152 31.8577 0.847652 31.7991 0.964986L30.4241 3.81399L27.3331 4.26499C27.2084 4.27965 27.0947 4.32915 26.9921 4.41349C26.8894 4.49782 26.8197 4.60232 26.7831 4.72699C26.7464 4.85165 26.7427 4.97815 26.7721 5.10649C26.8014 5.23482 26.8637 5.34299 26.9591 5.43099L29.1921 7.65299L28.6641 10.777C28.6421 10.909 28.6567 11.0337 28.7081 11.151C28.7594 11.2683 28.8364 11.3673 28.9391 11.448C29.0417 11.5287 29.1591 11.5727 29.2911 11.58C29.4231 11.5873 29.5477 11.5617 29.6651 11.503L32.4261 10.029L35.1871 11.503C35.3044 11.5617 35.4272 11.5873 35.5556 11.58C35.6839 11.5727 35.8031 11.5305 35.9131 11.4535C36.0231 11.3765 36.1019 11.2775 36.1496 11.1565C36.1972 11.0355 36.2101 10.909 36.1881 10.777L35.6491 7.65299L37.8931 5.43099C37.9884 5.34299 38.0507 5.23482 38.0801 5.10649C38.1094 4.97815 38.1021 4.85165 38.0581 4.72699C38.0141 4.60232 37.9444 4.49782 37.8491 4.41349C37.7537 4.32915 37.6401 4.27965 37.5081 4.26499L34.4281 3.81399L33.0421 0.964986Z" fill="#D1D5DB"/>
<path d="M46.4171 0.964986C46.3584 0.847652 46.2741 0.754152 46.1641 0.684485C46.0541 0.614819 45.9331 0.579986 45.8011 0.579986C45.6691 0.579986 45.5462 0.614819 45.4326 0.684485C45.3189 0.754152 45.2327 0.847652 45.1741 0.964986L43.7991 3.81399L40.7081 4.26499C40.5834 4.27965 40.4697 4.32915 40.3671 4.41349C40.2644 4.49782 40.1947 4.60232 40.1581 4.72699C40.1214 4.85165 40.1177 4.97815 40.1471 5.10649C40.1764 5.23482 40.2387 5.34299 40.3341 5.43099L42.5671 7.65299L42.0391 10.777C42.0171 10.909 42.0317 11.0337 42.0831 11.151C42.1344 11.2683 42.2114 11.3673 42.3141 11.448C42.4167 11.5287 42.5341 11.5727 42.6661 11.58C42.7981 11.5873 42.9227 11.5617 43.0401 11.503L45.8011 10.029L48.5621 11.503C48.6794 11.5617 48.8022 11.5873 48.9306 11.58C49.0589 11.5727 49.1781 11.5305 49.2881 11.4535C49.3981 11.3765 49.4769 11.2775 49.5246 11.1565C49.5722 11.0355 49.5851 10.909 49.5631 10.777L49.0241 7.65299L51.2681 5.43099C51.3634 5.34299 51.4257 5.23482 51.4551 5.10649C51.4844 4.97815 51.4771 4.85165 51.4331 4.72699C51.3891 4.60232 51.3194 4.49782 51.2241 4.41349C51.1287 4.32915 51.0151 4.27965 50.8831 4.26499L47.8031 3.81399L46.4171 0.964986Z" fill="#D1D5DB"/>
<path d="M59.7921 0.964986C59.7334 0.847652 59.6491 0.754152 59.5391 0.684485C59.4291 0.614819 59.3081 0.579986 59.1761 0.579986C59.0441 0.579986 58.9213 0.614819 58.8076 0.684485C58.6939 0.754152 58.6078 0.847652 58.5491 0.964986L57.1741 3.81399L54.0831 4.26499C53.9584 4.27965 53.8448 4.32915 53.7421 4.41349C53.6394 4.49782 53.5698 4.60232 53.5331 4.72699C53.4964 4.85165 53.4928 4.97815 53.5221 5.10649C53.5514 5.23482 53.6138 5.34299 53.7091 5.43099L55.9421 7.65299L55.4141 10.777C55.3921 10.909 55.4068 11.0337 55.4581 11.151C55.5094 11.2683 55.5864 11.3673 55.6891 11.448C55.7918 11.5287 55.9091 11.5727 56.0411 11.58C56.1731 11.5873 56.2978 11.5617 56.4151 11.503L59.1761 10.029L61.9371 11.503C62.0544 11.5617 62.1773 11.5873 62.3056 11.58C62.4339 11.5727 62.5531 11.5305 62.6631 11.4535C62.7731 11.3765 62.8519 11.2775 62.8996 11.1565C62.9473 11.0355 62.9601 10.909 62.9381 10.777L62.3991 7.65299L64.6431 5.43099C64.7384 5.34299 64.8008 5.23482 64.8301 5.10649C64.8594 4.97815 64.8521 4.85165 64.8081 4.72699C64.7641 4.60232 64.6944 4.49782 64.5991 4.41349C64.5038 4.32915 64.3901 4.27965 64.2581 4.26499L61.1781 3.81399L59.7921 0.964986Z" fill="#D1D5DB"/>
</g>
<g clip-path="url(#clip2_1_536)">
<g clip-path="url(#clip3_1_536)">
<path d="M6.29206 0.964986C6.23339 0.847652 6.14906 0.754152 6.03906 0.684485C5.92906 0.614819 5.80806 0.579986 5.67606 0.579986C5.54406 0.579986 5.42122 0.614819 5.30756 0.684485C5.19389 0.754152 5.10772 0.847652 5.04906 0.964986L3.67406 3.81399L0.583058 4.26499C0.458391 4.27965 0.344725 4.32915 0.242058 4.41349C0.139391 4.49782 0.0697247 4.60232 0.033058 4.72699C-0.00360867 4.85165 -0.00727534 4.97815 0.022058 5.10649C0.0513913 5.23482 0.113725 5.34299 0.209058 5.43099L2.44206 7.65299L1.91406 10.777C1.89206 10.909 1.90672 11.0337 1.95806 11.151C2.00939 11.2683 2.08639 11.3673 2.18906 11.448C2.29172 11.5287 2.40906 11.5727 2.54106 11.58C2.67306 11.5873 2.79772 11.5617 2.91506 11.503L5.67606 10.029L8.43706 11.503C8.55439 11.5617 8.67722 11.5873 8.80556 11.58C8.93389 11.5727 9.05306 11.5305 9.16306 11.4535C9.27306 11.3765 9.35189 11.2775 9.39956 11.1565C9.44722 11.0355 9.46006 10.909 9.43806 10.777L8.89906 7.65299L11.1431 5.43099C11.2384 5.34299 11.3007 5.23482 11.3301 5.10649C11.3594 4.97815 11.3521 4.85165 11.3081 4.72699C11.2641 4.60232 11.1944 4.49782 11.0991 4.41349C11.0037 4.32915 10.8901 4.27965 10.7581 4.26499L7.67806 3.81399L6.29206 0.964986Z" fill="#FACC15"/>
<path d="M19.6671 0.964986C19.6084 0.847652 19.5241 0.754152 19.4141 0.684485C19.3041 0.614819 19.1831 0.579986 19.0511 0.579986C18.9191 0.579986 18.7962 0.614819 18.6826 0.684485C18.5689 0.754152 18.4827 0.847652 18.4241 0.964986L17.0491 3.81399L13.9581 4.26499C13.8334 4.27965 13.7197 4.32915 13.6171 4.41349C13.5144 4.49782 13.4447 4.60232 13.4081 4.72699C13.3714 4.85165 13.3677 4.97815 13.3971 5.10649C13.4264 5.23482 13.4887 5.34299 13.5841 5.43099L15.8171 7.65299L15.2891 10.777C15.2671 10.909 15.2817 11.0337 15.3331 11.151C15.3844 11.2683 15.4614 11.3673 15.5641 11.448C15.6667 11.5287 15.7841 11.5727 15.9161 11.58C16.0481 11.5873 16.1727 11.5617 16.2901 11.503L19.0511 10.029L21.8121 11.503C21.9294 11.5617 22.0522 11.5873 22.1806 11.58C22.3089 11.5727 22.4281 11.5305 22.5381 11.4535C22.6481 11.3765 22.7269 11.2775 22.7746 11.1565C22.8222 11.0355 22.8351 10.909 22.8131 10.777L22.2741 7.65299L24.5181 5.43099C24.6134 5.34299 24.6757 5.23482 24.7051 5.10649C24.7344 4.97815 24.7271 4.85165 24.6831 4.72699C24.6391 4.60232 24.5694 4.49782 24.4741 4.41349C24.3787 4.32915 24.2651 4.27965 24.1331 4.26499L21.0531 3.81399L19.6671 0.964986Z" fill="#FACC15"/>
<path d="M33.0421 0.964986C32.9834 0.847652 32.8991 0.754152 32.7891 0.684485C32.6791 0.614819 32.5581 0.579986 32.4261 0.579986C32.2941 0.579986 32.1712 0.614819 32.0576 0.684485C31.9439 0.754152 31.8577 0.847652 31.7991 0.964986L30.4241 3.81399L27.3331 4.26499C27.2084 4.27965 27.0947 4.32915 26.9921 4.41349C26.8894 4.49782 26.8197 4.60232 26.7831 4.72699C26.7464 4.85165 26.7427 4.97815 26.7721 5.10649C26.8014 5.23482 26.8637 5.34299 26.9591 5.43099L29.1921 7.65299L28.6641 10.777C28.6421 10.909 28.6567 11.0337 28.7081 11.151C28.7594 11.2683 28.8364 11.3673 28.9391 11.448C29.0417 11.5287 29.1591 11.5727 29.2911 11.58C29.4231 11.5873 29.5477 11.5617 29.6651 11.503L32.4261 10.029L35.1871 11.503C35.3044 11.5617 35.4272 11.5873 35.5556 11.58C35.6839 11.5727 35.8031 11.5305 35.9131 11.4535C36.0231 11.3765 36.1019 11.2775 36.1496 11.1565C36.1972 11.0355 36.2101 10.909 36.1881 10.777L35.6491 7.65299L37.8931 5.43099C37.9884 5.34299 38.0507 5.23482 38.0801 5.10649C38.1094 4.97815 38.1021 4.85165 38.0581 4.72699C38.0141 4.60232 37.9444 4.49782 37.8491 4.41349C37.7537 4.32915 37.6401 4.27965 37.5081 4.26499L34.4281 3.81399L33.0421 0.964986Z" fill="#FACC15"/>
<path d="M46.4171 0.964986C46.3584 0.847652 46.2741 0.754152 46.1641 0.684485C46.0541 0.614819 45.9331 0.579986 45.8011 0.579986C45.6691 0.579986 45.5462 0.614819 45.4326 0.684485C45.3189 0.754152 45.2327 0.847652 45.1741 0.964986L43.7991 3.81399L40.7081 4.26499C40.5834 4.27965 40.4697 4.32915 40.3671 4.41349C40.2644 4.49782 40.1947 4.60232 40.1581 4.72699C40.1214 4.85165 40.1177 4.97815 40.1471 5.10649C40.1764 5.23482 40.2387 5.34299 40.3341 5.43099L42.5671 7.65299L42.0391 10.777C42.0171 10.909 42.0317 11.0337 42.0831 11.151C42.1344 11.2683 42.2114 11.3673 42.3141 11.448C42.4167 11.5287 42.5341 11.5727 42.6661 11.58C42.7981 11.5873 42.9227 11.5617 43.0401 11.503L45.8011 10.029L48.5621 11.503C48.6794 11.5617 48.8022 11.5873 48.9306 11.58C49.0589 11.5727 49.1781 11.5305 49.2881 11.4535C49.3981 11.3765 49.4769 11.2775 49.5246 11.1565C49.5722 11.0355 49.5851 10.909 49.5631 10.777L49.0241 7.65299L51.2681 5.43099C51.3634 5.34299 51.4257 5.23482 51.4551 5.10649C51.4844 4.97815 51.4771 4.85165 51.4331 4.72699C51.3891 4.60232 51.3194 4.49782 51.2241 4.41349C51.1287 4.32915 51.0151 4.27965 50.8831 4.26499L47.8031 3.81399L46.4171 0.964986Z" fill="#FACC15"/>
<path d="M59.7921 0.964986C59.7334 0.847652 59.6491 0.754152 59.5391 0.684485C59.4291 0.614819 59.3081 0.579986 59.1761 0.579986C59.0441 0.579986 58.9213 0.614819 58.8076 0.684485C58.6939 0.754152 58.6078 0.847652 58.5491 0.964986L57.1741 3.81399L54.0831 4.26499C53.9584 4.27965 53.8448 4.32915 53.7421 4.41349C53.6394 4.49782 53.5698 4.60232 53.5331 4.72699C53.4964 4.85165 53.4928 4.97815 53.5221 5.10649C53.5514 5.23482 53.6138 5.34299 53.7091 5.43099L55.9421 7.65299L55.4141 10.777C55.3921 10.909 55.4068 11.0337 55.4581 11.151C55.5094 11.2683 55.5864 11.3673 55.6891 11.448C55.7918 11.5287 55.9091 11.5727 56.0411 11.58C56.1731 11.5873 56.2978 11.5617 56.4151 11.503L59.1761 10.029L61.9371 11.503C62.0544 11.5617 62.1773 11.5873 62.3056 11.58C62.4339 11.5727 62.5531 11.5305 62.6631 11.4535C62.7731 11.3765 62.8519 11.2775 62.8996 11.1565C62.9473 11.0355 62.9601 10.909 62.9381 10.777L62.3991 7.65299L64.6431 5.43099C64.7384 5.34299 64.8008 5.23482 64.8301 5.10649C64.8594 4.97815 64.8521 4.85165 64.8081 4.72699C64.7641 4.60232 64.6944 4.49782 64.5991 4.41349C64.5038 4.32915 64.3901 4.27965 64.2581 4.26499L61.1781 3.81399L59.7921 0.964986Z" fill="#FACC15"/>
</g>
</g>
</g>
<defs>
<clipPath id="clip0_1_536">
<rect width="66.88" height="11" fill="white" transform="translate(0 0.579987)"/>
</clipPath>
<clipPath id="clip1_1_536">
<rect width="66.88" height="11" fill="white" transform="matrix(1 0 0 -1 0 11.58)"/>
</clipPath>
<clipPath id="clip2_1_536">
<rect width="57.91" height="11" fill="white" transform="translate(0 0.579987)"/>
</clipPath>
<clipPath id="clip3_1_536">
<rect width="66.88" height="11" fill="white" transform="matrix(1 0 0 -1 0 11.58)"/>
</clipPath>
</defs>
</svg>
