<svg width="67" height="12" viewBox="0 0 67 12" fill="none" xmlns="http://www.w3.org/2000/svg">
<g clip-path="url(#clip0_1_577)">
<g clip-path="url(#clip1_1_577)">
<path d="M6.292 1.24498C6.23333 1.12765 6.149 1.03415 6.039 0.964484C5.929 0.894817 5.808 0.859984 5.676 0.859984C5.544 0.859984 5.42116 0.894817 5.3075 0.964484C5.19383 1.03415 5.10766 1.12765 5.049 1.24498L3.674 4.09398L0.582997 4.54498C0.45833 4.55965 0.344664 4.60915 0.241997 4.69348C0.13933 4.77782 0.0696636 4.88232 0.032997 5.00698C-0.00366971 5.13165 -0.00733637 5.25815 0.021997 5.38648C0.0513303 5.51482 0.113664 5.62298 0.208997 5.71098L2.442 7.93298L1.914 11.057C1.892 11.189 1.90666 11.3137 1.958 11.431C2.00933 11.5483 2.08633 11.6473 2.189 11.728C2.29166 11.8087 2.409 11.8527 2.541 11.86C2.673 11.8673 2.79766 11.8417 2.915 11.783L5.676 10.309L8.437 11.783C8.55433 11.8417 8.67716 11.8673 8.8055 11.86C8.93383 11.8527 9.053 11.8105 9.163 11.7335C9.273 11.6565 9.35183 11.5575 9.3995 11.4365C9.44716 11.3155 9.46 11.189 9.438 11.057L8.899 7.93298L11.143 5.71098C11.2383 5.62298 11.3007 5.51482 11.33 5.38648C11.3593 5.25815 11.352 5.13165 11.308 5.00698C11.264 4.88232 11.1943 4.77782 11.099 4.69348C11.0037 4.60915 10.89 4.55965 10.758 4.54498L7.678 4.09398L6.292 1.24498Z" fill="#D1D5DB"/>
<path d="M19.6671 1.24498C19.6085 1.12765 19.5241 1.03415 19.4141 0.964484C19.3041 0.894817 19.1831 0.859984 19.0511 0.859984C18.9191 0.859984 18.7963 0.894817 18.6826 0.964484C18.569 1.03415 18.4828 1.12765 18.4241 1.24498L17.0491 4.09398L13.9581 4.54498C13.8335 4.55965 13.7198 4.60915 13.6171 4.69348C13.5145 4.77782 13.4448 4.88232 13.4081 5.00698C13.3715 5.13165 13.3678 5.25815 13.3971 5.38648C13.4265 5.51482 13.4888 5.62298 13.5841 5.71098L15.8171 7.93298L15.2891 11.057C15.2671 11.189 15.2818 11.3137 15.3331 11.431C15.3845 11.5483 15.4615 11.6473 15.5641 11.728C15.6668 11.8087 15.7841 11.8527 15.9161 11.86C16.0481 11.8673 16.1728 11.8417 16.2901 11.783L19.0511 10.309L21.8121 11.783C21.9295 11.8417 22.0523 11.8673 22.1806 11.86C22.309 11.8527 22.4281 11.8105 22.5381 11.7335C22.6481 11.6565 22.727 11.5575 22.7746 11.4365C22.8223 11.3155 22.8351 11.189 22.8131 11.057L22.2741 7.93298L24.5181 5.71098C24.6135 5.62298 24.6758 5.51482 24.7051 5.38648C24.7345 5.25815 24.7271 5.13165 24.6831 5.00698C24.6391 4.88232 24.5695 4.77782 24.4741 4.69348C24.3788 4.60915 24.2651 4.55965 24.1331 4.54498L21.0531 4.09398L19.6671 1.24498Z" fill="#D1D5DB"/>
<path d="M33.0421 1.24498C32.9835 1.12765 32.8991 1.03415 32.7891 0.964484C32.6791 0.894817 32.5581 0.859984 32.4261 0.859984C32.2941 0.859984 32.1713 0.894817 32.0576 0.964484C31.944 1.03415 31.8578 1.12765 31.7991 1.24498L30.4241 4.09398L27.3331 4.54498C27.2085 4.55965 27.0948 4.60915 26.9921 4.69348C26.8895 4.77782 26.8198 4.88232 26.7831 5.00698C26.7465 5.13165 26.7428 5.25815 26.7721 5.38648C26.8015 5.51482 26.8638 5.62298 26.9591 5.71098L29.1921 7.93298L28.6641 11.057C28.6421 11.189 28.6568 11.3137 28.7081 11.431C28.7595 11.5483 28.8365 11.6473 28.9391 11.728C29.0418 11.8087 29.1591 11.8527 29.2911 11.86C29.4231 11.8673 29.5478 11.8417 29.6651 11.783L32.4261 10.309L35.1871 11.783C35.3045 11.8417 35.4273 11.8673 35.5556 11.86C35.684 11.8527 35.8031 11.8105 35.9131 11.7335C36.0231 11.6565 36.102 11.5575 36.1496 11.4365C36.1973 11.3155 36.2101 11.189 36.1881 11.057L35.6491 7.93298L37.8931 5.71098C37.9885 5.62298 38.0508 5.51482 38.0801 5.38648C38.1095 5.25815 38.1021 5.13165 38.0581 5.00698C38.0141 4.88232 37.9445 4.77782 37.8491 4.69348C37.7538 4.60915 37.6401 4.55965 37.5081 4.54498L34.4281 4.09398L33.0421 1.24498Z" fill="#D1D5DB"/>
<path d="M46.4171 1.24498C46.3585 1.12765 46.2741 1.03415 46.1641 0.964484C46.0541 0.894817 45.9331 0.859984 45.8011 0.859984C45.6691 0.859984 45.5463 0.894817 45.4326 0.964484C45.319 1.03415 45.2328 1.12765 45.1741 1.24498L43.7991 4.09398L40.7081 4.54498C40.5835 4.55965 40.4698 4.60915 40.3671 4.69348C40.2645 4.77782 40.1948 4.88232 40.1581 5.00698C40.1215 5.13165 40.1178 5.25815 40.1471 5.38648C40.1765 5.51482 40.2388 5.62298 40.3341 5.71098L42.5671 7.93298L42.0391 11.057C42.0171 11.189 42.0318 11.3137 42.0831 11.431C42.1345 11.5483 42.2115 11.6473 42.3141 11.728C42.4168 11.8087 42.5341 11.8527 42.6661 11.86C42.7981 11.8673 42.9228 11.8417 43.0401 11.783L45.8011 10.309L48.5621 11.783C48.6795 11.8417 48.8023 11.8673 48.9306 11.86C49.059 11.8527 49.1781 11.8105 49.2881 11.7335C49.3981 11.6565 49.477 11.5575 49.5246 11.4365C49.5723 11.3155 49.5851 11.189 49.5631 11.057L49.0241 7.93298L51.2681 5.71098C51.3635 5.62298 51.4258 5.51482 51.4551 5.38648C51.4845 5.25815 51.4771 5.13165 51.4331 5.00698C51.3891 4.88232 51.3195 4.77782 51.2241 4.69348C51.1288 4.60915 51.0151 4.55965 50.8831 4.54498L47.8031 4.09398L46.4171 1.24498Z" fill="#D1D5DB"/>
<path d="M59.7921 1.24498C59.7335 1.12765 59.6491 1.03415 59.5391 0.964484C59.4291 0.894817 59.3081 0.859984 59.1761 0.859984C59.0441 0.859984 58.9213 0.894817 58.8076 0.964484C58.694 1.03415 58.6078 1.12765 58.5491 1.24498L57.1741 4.09398L54.0831 4.54498C53.9585 4.55965 53.8448 4.60915 53.7421 4.69348C53.6395 4.77782 53.5698 4.88232 53.5331 5.00698C53.4965 5.13165 53.4928 5.25815 53.5221 5.38648C53.5515 5.51482 53.6138 5.62298 53.7091 5.71098L55.9421 7.93298L55.4141 11.057C55.3921 11.189 55.4068 11.3137 55.4581 11.431C55.5095 11.5483 55.5865 11.6473 55.6891 11.728C55.7918 11.8087 55.9091 11.8527 56.0411 11.86C56.1731 11.8673 56.2978 11.8417 56.4151 11.783L59.1761 10.309L61.9371 11.783C62.0545 11.8417 62.1773 11.8673 62.3056 11.86C62.434 11.8527 62.5531 11.8105 62.6631 11.7335C62.7731 11.6565 62.852 11.5575 62.8996 11.4365C62.9473 11.3155 62.9601 11.189 62.9381 11.057L62.3991 7.93298L64.6431 5.71098C64.7385 5.62298 64.8008 5.51482 64.8301 5.38648C64.8595 5.25815 64.8521 5.13165 64.8081 5.00698C64.7641 4.88232 64.6945 4.77782 64.5991 4.69348C64.5038 4.60915 64.3901 4.55965 64.2581 4.54498L61.1781 4.09398L59.7921 1.24498Z" fill="#D1D5DB"/>
</g>
<g clip-path="url(#clip2_1_577)">
<g clip-path="url(#clip3_1_577)">
<path d="M6.292 1.24498C6.23333 1.12765 6.149 1.03415 6.039 0.964484C5.929 0.894817 5.808 0.859984 5.676 0.859984C5.544 0.859984 5.42116 0.894817 5.3075 0.964484C5.19383 1.03415 5.10766 1.12765 5.049 1.24498L3.674 4.09398L0.582997 4.54498C0.45833 4.55965 0.344664 4.60915 0.241997 4.69348C0.13933 4.77782 0.0696636 4.88232 0.032997 5.00698C-0.00366971 5.13165 -0.00733637 5.25815 0.021997 5.38648C0.0513303 5.51482 0.113664 5.62298 0.208997 5.71098L2.442 7.93298L1.914 11.057C1.892 11.189 1.90666 11.3137 1.958 11.431C2.00933 11.5483 2.08633 11.6473 2.189 11.728C2.29166 11.8087 2.409 11.8527 2.541 11.86C2.673 11.8673 2.79766 11.8417 2.915 11.783L5.676 10.309L8.437 11.783C8.55433 11.8417 8.67716 11.8673 8.8055 11.86C8.93383 11.8527 9.053 11.8105 9.163 11.7335C9.273 11.6565 9.35183 11.5575 9.3995 11.4365C9.44716 11.3155 9.46 11.189 9.438 11.057L8.899 7.93298L11.143 5.71098C11.2383 5.62298 11.3007 5.51482 11.33 5.38648C11.3593 5.25815 11.352 5.13165 11.308 5.00698C11.264 4.88232 11.1943 4.77782 11.099 4.69348C11.0037 4.60915 10.89 4.55965 10.758 4.54498L7.678 4.09398L6.292 1.24498Z" fill="#FACC15"/>
<path d="M19.6671 1.24498C19.6085 1.12765 19.5241 1.03415 19.4141 0.964484C19.3041 0.894817 19.1831 0.859984 19.0511 0.859984C18.9191 0.859984 18.7963 0.894817 18.6826 0.964484C18.569 1.03415 18.4828 1.12765 18.4241 1.24498L17.0491 4.09398L13.9581 4.54498C13.8335 4.55965 13.7198 4.60915 13.6171 4.69348C13.5145 4.77782 13.4448 4.88232 13.4081 5.00698C13.3715 5.13165 13.3678 5.25815 13.3971 5.38648C13.4265 5.51482 13.4888 5.62298 13.5841 5.71098L15.8171 7.93298L15.2891 11.057C15.2671 11.189 15.2818 11.3137 15.3331 11.431C15.3845 11.5483 15.4615 11.6473 15.5641 11.728C15.6668 11.8087 15.7841 11.8527 15.9161 11.86C16.0481 11.8673 16.1728 11.8417 16.2901 11.783L19.0511 10.309L21.8121 11.783C21.9295 11.8417 22.0523 11.8673 22.1806 11.86C22.309 11.8527 22.4281 11.8105 22.5381 11.7335C22.6481 11.6565 22.727 11.5575 22.7746 11.4365C22.8223 11.3155 22.8351 11.189 22.8131 11.057L22.2741 7.93298L24.5181 5.71098C24.6135 5.62298 24.6758 5.51482 24.7051 5.38648C24.7345 5.25815 24.7271 5.13165 24.6831 5.00698C24.6391 4.88232 24.5695 4.77782 24.4741 4.69348C24.3788 4.60915 24.2651 4.55965 24.1331 4.54498L21.0531 4.09398L19.6671 1.24498Z" fill="#FACC15"/>
<path d="M33.0421 1.24498C32.9835 1.12765 32.8991 1.03415 32.7891 0.964484C32.6791 0.894817 32.5581 0.859984 32.4261 0.859984C32.2941 0.859984 32.1713 0.894817 32.0576 0.964484C31.944 1.03415 31.8578 1.12765 31.7991 1.24498L30.4241 4.09398L27.3331 4.54498C27.2085 4.55965 27.0948 4.60915 26.9921 4.69348C26.8895 4.77782 26.8198 4.88232 26.7831 5.00698C26.7465 5.13165 26.7428 5.25815 26.7721 5.38648C26.8015 5.51482 26.8638 5.62298 26.9591 5.71098L29.1921 7.93298L28.6641 11.057C28.6421 11.189 28.6568 11.3137 28.7081 11.431C28.7595 11.5483 28.8365 11.6473 28.9391 11.728C29.0418 11.8087 29.1591 11.8527 29.2911 11.86C29.4231 11.8673 29.5478 11.8417 29.6651 11.783L32.4261 10.309L35.1871 11.783C35.3045 11.8417 35.4273 11.8673 35.5556 11.86C35.684 11.8527 35.8031 11.8105 35.9131 11.7335C36.0231 11.6565 36.102 11.5575 36.1496 11.4365C36.1973 11.3155 36.2101 11.189 36.1881 11.057L35.6491 7.93298L37.8931 5.71098C37.9885 5.62298 38.0508 5.51482 38.0801 5.38648C38.1095 5.25815 38.1021 5.13165 38.0581 5.00698C38.0141 4.88232 37.9445 4.77782 37.8491 4.69348C37.7538 4.60915 37.6401 4.55965 37.5081 4.54498L34.4281 4.09398L33.0421 1.24498Z" fill="#FACC15"/>
<path d="M46.4171 1.24498C46.3585 1.12765 46.2741 1.03415 46.1641 0.964484C46.0541 0.894817 45.9331 0.859984 45.8011 0.859984C45.6691 0.859984 45.5463 0.894817 45.4326 0.964484C45.319 1.03415 45.2328 1.12765 45.1741 1.24498L43.7991 4.09398L40.7081 4.54498C40.5835 4.55965 40.4698 4.60915 40.3671 4.69348C40.2645 4.77782 40.1948 4.88232 40.1581 5.00698C40.1215 5.13165 40.1178 5.25815 40.1471 5.38648C40.1765 5.51482 40.2388 5.62298 40.3341 5.71098L42.5671 7.93298L42.0391 11.057C42.0171 11.189 42.0318 11.3137 42.0831 11.431C42.1345 11.5483 42.2115 11.6473 42.3141 11.728C42.4168 11.8087 42.5341 11.8527 42.6661 11.86C42.7981 11.8673 42.9228 11.8417 43.0401 11.783L45.8011 10.309L48.5621 11.783C48.6795 11.8417 48.8023 11.8673 48.9306 11.86C49.059 11.8527 49.1781 11.8105 49.2881 11.7335C49.3981 11.6565 49.477 11.5575 49.5246 11.4365C49.5723 11.3155 49.5851 11.189 49.5631 11.057L49.0241 7.93298L51.2681 5.71098C51.3635 5.62298 51.4258 5.51482 51.4551 5.38648C51.4845 5.25815 51.4771 5.13165 51.4331 5.00698C51.3891 4.88232 51.3195 4.77782 51.2241 4.69348C51.1288 4.60915 51.0151 4.55965 50.8831 4.54498L47.8031 4.09398L46.4171 1.24498Z" fill="#FACC15"/>
<path d="M59.7921 1.24498C59.7335 1.12765 59.6491 1.03415 59.5391 0.964484C59.4291 0.894817 59.3081 0.859984 59.1761 0.859984C59.0441 0.859984 58.9213 0.894817 58.8076 0.964484C58.694 1.03415 58.6078 1.12765 58.5491 1.24498L57.1741 4.09398L54.0831 4.54498C53.9585 4.55965 53.8448 4.60915 53.7421 4.69348C53.6395 4.77782 53.5698 4.88232 53.5331 5.00698C53.4965 5.13165 53.4928 5.25815 53.5221 5.38648C53.5515 5.51482 53.6138 5.62298 53.7091 5.71098L55.9421 7.93298L55.4141 11.057C55.3921 11.189 55.4068 11.3137 55.4581 11.431C55.5095 11.5483 55.5865 11.6473 55.6891 11.728C55.7918 11.8087 55.9091 11.8527 56.0411 11.86C56.1731 11.8673 56.2978 11.8417 56.4151 11.783L59.1761 10.309L61.9371 11.783C62.0545 11.8417 62.1773 11.8673 62.3056 11.86C62.434 11.8527 62.5531 11.8105 62.6631 11.7335C62.7731 11.6565 62.852 11.5575 62.8996 11.4365C62.9473 11.3155 62.9601 11.189 62.9381 11.057L62.3991 7.93298L64.6431 5.71098C64.7385 5.62298 64.8008 5.51482 64.8301 5.38648C64.8595 5.25815 64.8521 5.13165 64.8081 5.00698C64.7641 4.88232 64.6945 4.77782 64.5991 4.69348C64.5038 4.60915 64.3901 4.55965 64.2581 4.54498L61.1781 4.09398L59.7921 1.24498Z" fill="#FACC15"/>
</g>
</g>
</g>
<defs>
<clipPath id="clip0_1_577">
<rect width="66.88" height="11" fill="white" transform="translate(0 0.859985)"/>
</clipPath>
<clipPath id="clip1_1_577">
<rect width="66.88" height="11" fill="white" transform="matrix(1 0 0 -1 0 11.86)"/>
</clipPath>
<clipPath id="clip2_1_577">
<rect width="62.45" height="11" fill="white" transform="translate(0 0.859985)"/>
</clipPath>
<clipPath id="clip3_1_577">
<rect width="66.88" height="11" fill="white" transform="matrix(1 0 0 -1 0 11.86)"/>
</clipPath>
</defs>
</svg>
