<svg width="19" height="16" viewBox="0 0 19 16" fill="none" xmlns="http://www.w3.org/2000/svg">
<path d="M16.94 0.019989H0.7C0.5 0.0466557 0.333333 0.139989 0.2 0.29999C0.0666667 0.45999 0 0.639989 0 0.83999C0 1.03999 0.0666667 1.22332 0.2 1.38999C0.333333 1.55666 0.5 1.65332 0.7 1.67999H3.92L3.34 9.05999V9.19999C3.34 9.65332 3.50333 10.0433 3.83 10.37C4.15667 10.6967 4.54667 10.86 5 10.86H15.22C15.62 10.86 15.97 10.7367 16.27 10.49C16.57 10.2433 16.76 9.93999 16.84 9.57999L18.56 2.05999C18.5867 1.89999 18.6 1.77332 18.6 1.67999C18.6 1.21332 18.44 0.819989 18.12 0.49999C17.8 0.17999 17.4067 0.019989 16.94 0.019989ZM15.22 9.17999H5L5.58 1.67999H16.94L15.22 9.17999ZM6.54 15.02C7.00667 15.02 7.40333 14.8567 7.73 14.53C8.05667 14.2033 8.22 13.8067 8.22 13.34C8.22 12.8733 8.05667 12.48 7.73 12.16C7.40333 11.84 7.00667 11.68 6.54 11.68C6.08667 11.68 5.69667 11.84 5.37 12.16C5.04333 12.48 4.88 12.8733 4.88 13.34C4.88 13.8067 5.04333 14.2033 5.37 14.53C5.69667 14.8567 6.08667 15.02 6.54 15.02ZM14.04 15.02C14.5067 15.02 14.9033 14.8567 15.23 14.53C15.5567 14.2033 15.72 13.8067 15.72 13.34C15.72 12.8733 15.5567 12.48 15.23 12.16C14.9033 11.84 14.5067 11.68 14.04 11.68C13.5867 11.68 13.1967 11.84 12.87 12.16C12.5433 12.48 12.38 12.8733 12.38 13.34C12.38 13.8067 12.5433 14.2033 12.87 14.53C13.1967 14.8567 13.5867 15.02 14.04 15.02Z" fill="white"/>
</svg>
