<svg width="15" height="15" viewBox="0 0 15 15" fill="none" xmlns="http://www.w3.org/2000/svg">
<path d="M7.668 3.43021C7.01734 3.43021 6.41734 3.59287 5.868 3.91821C5.31867 4.24354 4.88134 4.68087 4.556 5.23021C4.23067 5.77954 4.068 6.37954 4.068 7.03021C4.068 7.68087 4.23067 8.28087 4.556 8.83021C4.88134 9.37954 5.31867 9.81421 5.868 10.1342C6.41734 10.4542 7.01734 10.6142 7.668 10.6142C8.31867 10.6142 8.91867 10.4542 9.468 10.1342C10.0173 9.81421 10.452 9.37954 10.772 8.83021C11.092 8.28087 11.252 7.68087 11.252 7.03021C11.252 6.37954 11.092 5.77954 10.772 5.23021C10.452 4.68087 10.0173 4.24354 9.468 3.91821C8.91867 3.59287 8.31867 3.43021 7.668 3.43021ZM7.668 9.36621C7.24134 9.36621 6.84934 9.26221 6.492 9.05421C6.13467 8.84621 5.852 8.56087 5.644 8.19821C5.436 7.83554 5.332 7.44621 5.332 7.03021C5.332 6.61421 5.436 6.22487 5.644 5.86221C5.852 5.49954 6.13467 5.21421 6.492 5.00621C6.84934 4.79821 7.24134 4.69421 7.668 4.69421C8.09467 4.69421 8.48667 4.79821 8.844 5.00621C9.20134 5.21421 9.484 5.49687 9.692 5.85421C9.9 6.21154 10.004 6.60354 10.004 7.03021C10.004 7.45687 9.9 7.84887 9.692 8.20621C9.484 8.56354 9.19867 8.84621 8.836 9.05421C8.47334 9.26221 8.084 9.36621 7.668 9.36621ZM12.244 3.28621C12.244 3.52087 12.1613 3.72087 11.996 3.88621C11.8307 4.05154 11.6307 4.13421 11.396 4.13421C11.1613 4.13421 10.964 4.05154 10.804 3.88621C10.644 3.72087 10.564 3.52087 10.564 3.28621C10.564 3.05154 10.644 2.85421 10.804 2.69421C10.964 2.53421 11.1613 2.45421 11.396 2.45421C11.6307 2.45421 11.8307 2.53421 11.996 2.69421C12.1613 2.85421 12.244 3.05154 12.244 3.28621ZM14.612 4.13421C14.5907 3.52621 14.5 2.99821 14.34 2.55021C14.1587 2.03821 13.8733 1.59021 13.484 1.20621C13.0947 0.822207 12.644 0.53954 12.132 0.358208C11.684 0.198207 11.156 0.102207 10.548 0.0702076C9.972 0.0382071 9.00934 0.0222073 7.66 0.0222073C6.31067 0.0222073 5.348 0.0382071 4.772 0.0702076C4.15334 0.102207 3.62534 0.198207 3.188 0.358208C2.676 0.53954 2.228 0.822207 1.844 1.20621C1.46 1.59021 1.17734 2.03821 0.996004 2.55021C0.825337 2.99821 0.729337 3.52621 0.708004 4.13421C0.676004 4.71021 0.660004 5.67287 0.660004 7.02221C0.660004 8.37154 0.676004 9.33421 0.708004 9.91021C0.729337 10.5182 0.820004 11.0462 0.980004 11.4942C1.16134 12.0062 1.44934 12.4595 1.844 12.8542C2.23867 13.2489 2.692 13.5315 3.204 13.7022C3.63067 13.8622 4.15334 13.9529 4.772 13.9742C5.348 14.0169 6.31067 14.0382 7.66 14.0382C9.00934 14.0382 9.972 14.0169 10.548 13.9742C11.156 13.9529 11.684 13.8622 12.132 13.7022C12.644 13.5209 13.0947 13.2355 13.484 12.8462C13.8733 12.4569 14.1587 12.0062 14.34 11.4942C14.5 11.0462 14.5907 10.5182 14.612 9.91021C14.644 9.33421 14.66 8.37421 14.66 7.03021C14.66 5.68621 14.644 4.72087 14.612 4.13421ZM13.124 11.1582C13.0067 11.4569 12.8333 11.7235 12.604 11.9582C12.3747 12.1929 12.1053 12.3689 11.796 12.4862C11.444 12.6249 10.8733 12.7155 10.084 12.7582C9.636 12.7795 8.99067 12.7849 8.148 12.7742H7.188C6.34534 12.7849 5.7 12.7795 5.252 12.7582C4.452 12.7155 3.88134 12.6249 3.54 12.4862C3.23067 12.3689 2.96134 12.1955 2.732 11.9662C2.50267 11.7369 2.32934 11.4675 2.212 11.1582C2.07334 10.8062 1.98267 10.2355 1.94 9.44621C1.91867 8.99821 1.91334 8.35287 1.924 7.51021V6.55021C1.91334 5.70754 1.91867 5.06221 1.94 4.61421C1.98267 3.81421 2.07334 3.24354 2.212 2.90221C2.32934 2.59287 2.50267 2.32354 2.732 2.09421C2.96134 1.86487 3.23067 1.69154 3.54 1.57421C3.88134 1.43554 4.44667 1.34487 5.236 1.30221C5.684 1.28087 6.33467 1.27554 7.188 1.28621H8.148C8.99067 1.27554 9.636 1.28087 10.084 1.30221C10.8733 1.34487 11.444 1.43554 11.796 1.57421C12.1053 1.69154 12.3747 1.86487 12.604 2.09421C12.8333 2.32354 13.0067 2.59287 13.124 2.90221C13.2627 3.24354 13.3533 3.80887 13.396 4.59821C13.4173 5.04621 13.4227 5.69687 13.412 6.55021V7.51021C13.4227 8.35287 13.4173 8.99821 13.396 9.44621C13.3533 10.2355 13.2627 10.8062 13.124 11.1582Z" fill="#FD1D1D"/>
</svg>
