<svg width="14" height="14" viewBox="0 0 14 14" fill="none" xmlns="http://www.w3.org/2000/svg">
<path d="M3.0375 13.6552H0.322504V4.89515H3.0375V13.6552ZM1.6725 3.69515C1.3925 3.69515 1.13 3.62265 0.885004 3.47765C0.640004 3.33265 0.447504 3.14015 0.307504 2.90015C0.167504 2.66015 0.0975037 2.39515 0.0975037 2.10515C0.0975037 1.81515 0.167504 1.55015 0.307504 1.31015C0.447504 1.07015 0.637504 0.880152 0.877504 0.740151C1.1175 0.600152 1.3825 0.530151 1.6725 0.530151C1.9625 0.530151 2.2275 0.600152 2.4675 0.740151C2.7075 0.880152 2.8975 1.07015 3.0375 1.31015C3.1775 1.55015 3.2475 1.81515 3.2475 2.10515C3.2475 2.39515 3.1775 2.66015 3.0375 2.90015C2.8975 3.14015 2.705 3.33265 2.46 3.47765C2.215 3.62265 1.9525 3.69515 1.6725 3.69515ZM13.2225 13.6552H10.5075V9.39515C10.5075 8.93515 10.4875 8.58515 10.4475 8.34515C10.3875 7.95515 10.2625 7.65515 10.0725 7.44515C9.8525 7.19515 9.5275 7.07015 9.0975 7.07015C8.4475 7.07015 7.9975 7.30015 7.7475 7.76015C7.5575 8.11015 7.4625 8.63015 7.4625 9.32015V13.6552H4.7475V4.89515H7.3575V6.08015H7.3875C7.5875 5.70015 7.8975 5.38015 8.3175 5.12015C8.7975 4.82015 9.3475 4.67015 9.9675 4.67015C10.8375 4.67015 11.5275 4.85515 12.0375 5.22515C12.4875 5.55515 12.8025 6.05015 12.9825 6.71015C13.1425 7.26015 13.2225 7.97015 13.2225 8.84015V13.6552Z" fill="#0077B5"/>
</svg>
