<svg width="26" height="21" viewBox="0 0 26 21" fill="none" xmlns="http://www.w3.org/2000/svg">
<path d="M22.084 0.526186H3.43603C2.85737 0.526186 2.31603 0.666185 1.81203 0.946186C1.30803 1.22619 0.906701 1.60885 0.608034 2.09419C0.309368 2.57952 0.160034 3.11152 0.160034 3.69019V17.6902C0.160034 18.2689 0.304701 18.8102 0.594034 19.3142C0.883368 19.8182 1.27537 20.2195 1.77003 20.5182C2.2647 20.8169 2.82003 20.9662 3.43603 20.9662H22.084C22.6627 20.9662 23.204 20.8215 23.708 20.5322C24.212 20.2429 24.6134 19.8509 24.912 19.3562C25.2107 18.8615 25.36 18.3062 25.36 17.6902V3.69019C25.36 3.11152 25.2107 2.57952 24.912 2.09419C24.6134 1.60885 24.212 1.22619 23.708 0.946186C23.204 0.666185 22.6627 0.526186 22.084 0.526186ZM3.43603 2.29019H22.084C22.4947 2.29019 22.8307 2.43019 23.092 2.71019C23.3534 2.99019 23.484 3.31685 23.484 3.69019V4.39019L13.46 10.8022C13.2174 10.9142 12.9654 10.9702 12.704 10.9702C12.4427 10.9702 12.1907 10.9142 11.948 10.8022L2.03603 4.39019V3.69019C2.03603 3.27952 2.1667 2.94352 2.42803 2.68219C2.68937 2.42085 3.02537 2.29019 3.43603 2.29019ZM22.084 19.2022H3.43603C3.04403 19.2022 2.7127 19.0575 2.44203 18.7682C2.17137 18.4789 2.03603 18.1569 2.03603 17.8022V6.49019L11.136 12.3142C11.528 12.6315 12.0694 12.7902 12.76 12.7902C13.4507 12.7902 13.992 12.6315 14.384 12.3142L23.484 6.49019V17.6902C23.484 18.1009 23.3534 18.4555 23.092 18.7542C22.8307 19.0529 22.4947 19.2022 22.084 19.2022Z" fill="#111827"/>
</svg>
