<svg width="15" height="14" viewBox="0 0 15 14" fill="none" xmlns="http://www.w3.org/2000/svg">
<path d="M13.615 3.97012C13.625 4.06012 13.63 4.19512 13.63 4.37512C13.63 5.41512 13.44 6.44012 13.06 7.45012C12.67 8.51012 12.11 9.45012 11.38 10.2701C10.6 11.1501 9.68497 11.8351 8.63497 12.3251C7.49497 12.8551 6.24497 13.1201 4.88497 13.1201C4.02497 13.1201 3.19497 13.0026 2.39497 12.7676C1.59497 12.5326 0.849973 12.1901 0.159973 11.7401C0.419973 11.7701 0.669973 11.7851 0.909973 11.7851C1.60997 11.7851 2.28747 11.6701 2.94247 11.4401C3.59747 11.2101 4.18997 10.8851 4.71997 10.4651C4.04997 10.4551 3.45247 10.2501 2.92747 9.85012C2.40247 9.45012 2.03997 8.94512 1.83997 8.33512C2.03997 8.36512 2.23497 8.38012 2.42497 8.38012C2.72497 8.38012 2.99497 8.34512 3.23497 8.27512C2.76497 8.18512 2.34497 7.99512 1.97497 7.70512C1.60497 7.41512 1.31247 7.05762 1.09747 6.63262C0.882473 6.20762 0.774973 5.75012 0.774973 5.26012V5.21512C1.18497 5.45512 1.64497 5.58512 2.15497 5.60512C1.73497 5.33512 1.40247 4.97262 1.15747 4.51762C0.912473 4.06262 0.789973 3.57512 0.789973 3.05512C0.789973 2.49512 0.929973 1.97512 1.20997 1.49512C1.97997 2.44512 2.90497 3.20012 3.98497 3.76012C5.09497 4.33012 6.27997 4.65012 7.53997 4.72012C7.48997 4.47012 7.46497 4.23512 7.46497 4.01512C7.46497 3.45512 7.60247 2.94012 7.87747 2.47012C8.15247 2.00012 8.52497 1.62762 8.99497 1.35262C9.46497 1.07762 9.97997 0.940118 10.54 0.940118C10.98 0.940118 11.395 1.02762 11.785 1.20262C12.175 1.37762 12.51 1.61512 12.79 1.91512C13.5 1.77512 14.15 1.52512 14.74 1.16512C14.63 1.52512 14.4575 1.85012 14.2225 2.14012C13.9875 2.43012 13.71 2.67012 13.39 2.86012C13.96 2.80012 14.55 2.64012 15.16 2.38012C14.74 3.00012 14.225 3.53012 13.615 3.97012Z" fill="#1DA1F2"/>
</svg>
